<svg width="38" height="38" viewBox="0 0 38 38" fill="none" xmlns="http://www.w3.org/2000/svg">
<g clip-path="url(#clip0_9848_8600)">
<path d="M1.21917 23.75C0.856583 23.75 0.530417 23.4998 0.448083 23.1325C0.150417 21.8152 0 20.425 0 19C0 8.52308 8.52308 0 19 0C25.0167 0 30.7309 2.8975 34.2839 7.75042C34.542 8.1035 34.466 8.59908 34.1129 8.85717C33.7598 9.11525 33.2643 9.03925 33.0062 8.68617C29.7508 4.23858 24.5132 1.58333 19 1.58333C9.39708 1.58333 1.58333 9.39708 1.58333 19C1.58333 20.3094 1.72108 21.5824 1.99183 22.7842C2.08842 23.2117 1.82083 23.6344 1.39333 23.731C1.33475 23.7437 1.27617 23.75 1.21917 23.75Z" fill="#007BFF"/>
<path d="M18.9994 38.0001C12.9827 38.0001 7.26849 35.1026 3.71549 30.2496C3.4574 29.8966 3.5334 29.401 3.88649 29.1429C4.23799 28.8832 4.73357 28.9608 4.99324 29.3139C8.24857 33.7615 13.4862 36.4167 18.9994 36.4167C28.6023 36.4167 36.4161 28.603 36.4161 19.0001C36.4161 17.6732 36.2752 16.4018 35.9949 15.2254C35.8936 14.7995 36.1564 14.372 36.5823 14.2722C37.0114 14.1693 37.4357 14.4337 37.5355 14.8596C37.8427 16.1564 37.9994 17.5497 37.9994 19.0001C37.9994 29.477 29.4763 38.0001 18.9994 38.0001Z" fill="#007BFF"/>
<path d="M4.03718 34.8333C3.60652 34.8333 3.25343 34.4882 3.24552 34.0543L3.16635 29.3043C3.16318 29.0922 3.24393 28.8879 3.39435 28.7359C3.5416 28.5855 3.74585 28.5 3.95802 28.5H8.70802C9.14502 28.5 9.49968 28.8547 9.49968 29.2917C9.49968 29.7287 9.14502 30.0833 8.70802 30.0833H4.76235L4.82885 34.029C4.83677 34.466 4.48843 34.8254 4.05143 34.8333C4.04668 34.8333 4.04193 34.8333 4.03718 34.8333Z" fill="#007BFF"/>
<path d="M34.0417 9.50033H29.2917C28.8547 9.50033 28.5 9.14566 28.5 8.70866C28.5 8.27166 28.8547 7.91699 29.2917 7.91699H33.25V3.95866C33.25 3.52166 33.6047 3.16699 34.0417 3.16699C34.4787 3.16699 34.8333 3.52166 34.8333 3.95866V8.70866C34.8333 9.14566 34.4787 9.50033 34.0417 9.50033Z" fill="#007BFF"/>
<path d="M19 31.6671C18.8955 31.6671 18.791 31.6465 18.6928 31.6037C18.316 31.447 9.5 27.6359 9.5 19.8491V13.2323C9.5 12.8935 9.71692 12.5911 10.0383 12.4818L18.7467 9.54156C18.9113 9.48615 19.0887 9.48615 19.2533 9.54156L27.9617 12.4818C28.2831 12.5911 28.5 12.8935 28.5 13.2323V19.8491C28.5 27.6359 19.684 31.447 19.3072 31.6053C19.209 31.6465 19.1045 31.6671 19 31.6671ZM11.0833 13.8007V19.8491C11.0833 25.842 17.5037 29.2826 19 30.0046C20.4947 29.281 26.9167 25.8277 26.9167 19.8491V13.8007L19 11.1281L11.0833 13.8007Z" fill="#007BFF"/>
<path d="M18.2087 23.7504C18.1944 23.7504 18.1786 23.7504 18.1643 23.7488C17.9395 23.7361 17.7305 23.6285 17.5896 23.4527L14.4229 19.4944C14.1506 19.1524 14.206 18.6552 14.5464 18.3813C14.8884 18.109 15.3872 18.1644 15.6595 18.5048L18.2736 21.7728L23.1898 16.8566C23.4986 16.5478 24.0005 16.5478 24.3092 16.8566C24.618 17.1653 24.618 17.6672 24.3092 17.976L18.7676 23.5176C18.6203 23.6681 18.4177 23.7504 18.2087 23.7504Z" fill="#007BFF"/>
</g>
<defs>
<clipPath id="clip0_9848_8600">
<rect width="38" height="38" fill="white"/>
</clipPath>
</defs>
</svg>
