<svg width="38" height="38" viewBox="0 0 38 38" fill="none" xmlns="http://www.w3.org/2000/svg">
<path d="M19.0001 0.000976562C8.52341 0.000976562 0 8.52426 0 19.0009C0 29.4774 8.52341 38.0007 19.0001 38.0007C29.4767 38.0007 38 29.4774 38 19.0009C38 8.52426 29.4767 0.000976562 19.0001 0.000976562ZM19.0001 34.886C10.2409 34.886 3.11473 27.7601 3.11473 19.0009C3.11473 10.2417 10.2409 3.11571 19.0001 3.11571C27.7593 3.11571 34.8853 10.2417 34.8853 19.0009C34.8853 27.7601 27.7593 34.886 19.0001 34.886Z" fill="#FF073A"/>
<path d="M27.2185 11.7075L15.9374 22.9887L10.7797 17.831C10.1714 17.2229 9.18543 17.2229 8.57718 17.831C7.96906 18.4392 7.96906 19.4252 8.57718 20.0335L14.8362 26.2925C15.1403 26.5965 15.5389 26.7486 15.9374 26.7486C16.336 26.7486 16.7345 26.5965 17.0387 26.2925L29.421 13.9102C30.0291 13.3019 30.0291 12.3159 29.421 11.7077C28.8127 11.0994 27.8266 11.0994 27.2185 11.7075Z" fill="#FF073A"/>
</svg>
