<svg width="38" height="38" viewBox="0 0 38 38" fill="none" xmlns="http://www.w3.org/2000/svg">
<path d="M30.5195 23.2884L29.7883 20.7147C34.5417 8.8854 30.2039 0.590342 25.8039 1.22699C24.4169 -0.222428 22.4135 -0.385709 19.6936 0.726459C18.9671 1.02333 19.4154 2.12326 20.143 1.82564C24.6184 -0.00415043 24.7668 2.68539 25.7256 2.45093C29.5758 1.50709 32.8181 9.7548 28.7782 20.0427C25.5414 19.5936 25.3115 17.5193 24.4768 18.3491C24.3652 18.4601 24.3022 18.611 24.3017 18.7684C24.3013 18.9259 24.3634 19.0771 24.4744 19.1887C25.6056 20.3267 27.0259 21.0111 28.6999 21.2289L29.3333 23.4582C24.04 28.4104 21.5148 27.7655 22.0161 28.9687C22.0461 29.0407 22.09 29.1061 22.1452 29.1611C22.2005 29.2161 22.266 29.2597 22.3381 29.2894C22.4102 29.3191 22.4875 29.3343 22.5654 29.3341C22.6434 29.334 22.7206 29.3184 22.7926 29.2884C26.1185 27.9028 29.0277 25.366 30.0426 24.4224C39.3091 31.7153 35.4865 38.0002 37.408 38.0002C37.5654 38.0002 37.7165 37.9377 37.8278 37.8263C37.9392 37.715 38.0017 37.564 38.0017 37.4065C38.0017 31.1848 35.3503 27.011 30.5195 23.2884Z" fill="#6C757D"/>
<path d="M25.9096 13.5821C24.8819 9.96445 20.885 11.1056 21.7494 14.1469C21.964 14.902 23.1065 14.5785 22.8917 13.8223C22.4506 12.2698 24.1827 11.8486 24.7674 13.9066C25.1217 15.154 24.9461 16.3248 23.7031 16.678C22.9473 16.8928 23.2718 18.0348 24.0276 17.8203C25.9156 17.2839 26.4566 15.5069 25.9096 13.5821Z" fill="#6C757D"/>
<path d="M20.9485 24.3611C21.5577 26.083 21.4362 27.3085 22.331 27.0545C22.406 27.0332 22.4761 26.9973 22.5372 26.9489C22.5984 26.9005 22.6494 26.8406 22.6874 26.7724C22.7253 26.7043 22.7495 26.6294 22.7585 26.552C22.7675 26.4745 22.7612 26.3961 22.7399 26.321L21.9285 23.4653C21.9072 23.3903 21.8713 23.3203 21.8229 23.2591C21.7745 23.198 21.7145 23.147 21.6464 23.109C21.5783 23.071 21.5034 23.0468 21.426 23.0378C21.3485 23.0288 21.27 23.0352 21.195 23.0565C17.1344 24.0816 16.69 24.6478 15.783 24.1422C15.6124 24.0477 15.4623 23.9204 15.3413 23.7675C15.2202 23.6146 15.1307 23.4393 15.0779 23.2516C14.3247 20.9137 14.4879 20.4274 13.9377 20.2723L12.3945 19.8372C13.6186 16.4163 13.6914 18.5884 12.4539 14.0167C14.2588 14.1739 15.3063 13.5262 19.9871 12.2895C20.7435 12.0746 20.4176 10.9326 19.6626 11.1472L14.3492 12.6567C10.9377 13.5614 8.79108 11.1159 7.63245 7.81564C9.71436 8.24255 12.2192 6.39539 16.0483 4.0287C16.7168 3.6156 16.092 2.60571 15.4239 3.01866C11.708 5.31543 8.50979 7.65889 7.12257 6.29542C6.73619 5.84788 5.97663 6.2025 6.10533 6.81985C6.66152 9.48801 8.40878 12.7658 11.1387 13.7327L12.1467 17.2804C10.6341 21.2725 10.2764 20.3689 13.2958 21.3246C13.8911 22.9488 13.7537 24.3704 15.2045 25.1791C15.5106 25.3509 15.8478 25.4603 16.1964 25.5008C16.5451 25.5414 16.8984 25.5124 17.2358 25.4155L20.9485 24.3611Z" fill="#6C757D"/>
<path d="M29.6528 27.8921C29.107 27.8941 28.5669 28.0036 28.0634 28.2145C27.5599 28.4253 27.1029 28.7334 26.7185 29.1209C26.3341 29.5085 26.0299 29.968 25.8232 30.4733C25.6165 30.9785 25.5114 31.5195 25.514 32.0654L25.5337 37.4091C25.5366 38.2009 26.7241 38.1936 26.7212 37.4047L26.7015 32.0609C26.6982 31.2735 27.0078 30.5171 27.5622 29.958C28.1166 29.3989 28.8704 29.083 29.6577 29.0797C30.4451 29.0764 31.2015 29.386 31.7606 29.9404C32.3197 30.4948 32.6357 31.2486 32.639 32.036L32.6587 37.3797C32.6593 37.5368 32.7221 37.6873 32.8334 37.7982C32.9447 37.9091 33.0954 37.9713 33.2525 37.9713C33.2599 37.968 33.8483 37.945 33.8462 37.3753L33.8265 32.0316C33.8207 30.9296 33.378 29.8749 32.5956 29.0989C31.8131 28.3228 30.7548 27.8888 29.6528 27.8921Z" fill="#6C757D"/>
<path d="M20.2781 31.5626L20.2197 31.4219C20.6157 29.212 21.4993 28.0827 20.5665 26.888C20.0277 26.1977 18.7259 25.7638 18.4463 26.51C16.5867 31.5589 16.5794 31.2878 16.6388 31.585C17.9028 37.0205 17.5294 38 18.4079 37.9998C18.4958 37.9999 18.5826 37.9805 18.6621 37.943C18.7416 37.9054 18.8118 37.8507 18.8675 37.7827C18.9233 37.7148 18.9633 37.6353 18.9846 37.55C19.0059 37.4647 19.008 37.3758 18.9907 37.2896L17.8364 31.5182L19.3785 27.4061C20.1949 27.844 19.6112 28.6023 19.02 31.3248C18.9363 31.6588 19.0571 31.618 20.2353 34.5516C20.2881 34.6783 20.3831 34.7829 20.5042 34.8475C20.6254 34.912 20.7652 34.9326 20.8998 34.9057C21.6837 34.7491 21.2605 33.753 21.3772 32.211C21.3772 31.2137 22.5647 31.2133 22.5647 32.211C22.5647 35.7758 22.7084 35.8292 21.5511 36.9865C20.9961 37.5415 21.835 38.3818 22.3909 37.8262C23.9506 36.2661 23.7522 35.6793 23.7522 32.2107C23.7522 29.8983 20.8388 29.6473 20.2781 31.5626Z" fill="#6C757D"/>
<path d="M15.4393 19.5938C16.2243 19.5938 16.2254 18.4062 15.4393 18.4062C14.6543 18.4062 14.6531 19.5938 15.4393 19.5938Z" fill="#6C757D"/>
<path d="M0.595524 23.75C-0.189488 23.75 -0.190601 24.9375 0.595524 24.9375C1.38165 24.9375 1.38165 23.75 0.595524 23.75Z" fill="#6C757D"/>
<path d="M2.97094 24.9375C3.75595 24.9375 3.75707 23.75 2.97094 23.75C2.18482 23.75 2.18482 24.9375 2.97094 24.9375Z" fill="#6C757D"/>
<path d="M5.34552 24.9375C6.13054 24.9375 6.13165 23.75 5.34552 23.75C4.56051 23.75 4.5594 24.9375 5.34552 24.9375Z" fill="#6C757D"/>
<path d="M11.877 26.719C11.877 27.504 13.0645 27.5051 13.0645 26.719C13.0645 25.9329 11.877 25.9329 11.877 26.719Z" fill="#6C757D"/>
<path d="M17.8143 19.5938C18.5993 19.5938 18.6004 18.4062 17.8143 18.4062C17.0293 18.4062 17.0281 19.5938 17.8143 19.5938Z" fill="#6C757D"/>
<path d="M25.5332 24.3445C25.5332 23.5595 24.3457 23.5584 24.3457 24.3445C24.3457 25.1307 25.5332 25.1307 25.5332 24.3445Z" fill="#6C757D"/>
<path d="M23.1582 22.5627C23.1582 23.3477 24.3457 23.3489 24.3457 22.5627C24.3457 21.7766 23.1582 21.7766 23.1582 22.5627Z" fill="#6C757D"/>
<path d="M21.377 20.7815C21.377 21.5665 22.5645 21.5676 22.5645 20.7815C22.5645 19.9954 21.377 19.9954 21.377 20.7815Z" fill="#6C757D"/>
<path d="M20.1897 20.1875C20.9747 20.1875 20.9758 19 20.1897 19C19.4036 19 19.4036 20.1875 20.1897 20.1875Z" fill="#6C757D"/>
<path d="M17.8143 2.96875C18.5993 2.96875 18.6004 1.78125 17.8143 1.78125C17.0293 1.78125 17.0281 2.96875 17.8143 2.96875Z" fill="#6C757D"/>
<path d="M4.75195 22.5625H10.0957C10.8806 22.5625 10.8818 21.375 10.0957 21.375H4.75195C4.43712 21.3746 4.13529 21.2494 3.91268 21.0268C3.69006 20.8042 3.56483 20.5023 3.56445 20.1875C3.56445 18.6158 5.93945 18.6178 5.93945 20.1875C5.93945 20.345 6.00201 20.496 6.11336 20.6073C6.22471 20.7187 6.37573 20.7812 6.5332 20.7812C7.7806 20.7812 7.01562 17.8125 4.75195 17.8125C4.12206 17.8125 3.51797 18.0627 3.07257 18.5081C2.62718 18.9535 2.37695 19.5576 2.37695 20.1875C2.37695 20.8174 2.62718 21.4215 3.07257 21.8669C3.51797 22.3123 4.12206 22.5625 4.75195 22.5625Z" fill="#6C757D"/>
<path d="M10.0957 26.125H4.75195C4.28222 26.125 3.82304 26.2643 3.43247 26.5253C3.04191 26.7862 2.7375 27.1572 2.55774 27.5911C2.37798 28.0251 2.33095 28.5026 2.42259 28.9633C2.51423 29.424 2.74043 29.8472 3.07258 30.1794C3.40473 30.5115 3.82791 30.7377 4.28861 30.8294C4.74932 30.921 5.22685 30.874 5.66083 30.6942C6.0948 30.5145 6.46573 30.21 6.72669 29.8195C6.98766 29.4289 7.12695 28.9697 7.12695 28.5C7.12695 27.7151 5.93945 27.7139 5.93945 28.5C5.93945 30.0717 3.56445 30.0697 3.56445 28.5C3.56483 28.1852 3.69006 27.8833 3.91268 27.6607C4.1353 27.4381 4.43712 27.3129 4.75195 27.3125H10.0957C10.8806 27.3125 10.8818 26.125 10.0957 26.125Z" fill="#6C757D"/>
<path d="M12.4705 23.75H7.7205C6.93556 23.75 6.93437 24.9375 7.7205 24.9375H12.4705C13.2554 24.9375 13.2566 23.75 12.4705 23.75Z" fill="#6C757D"/>
</svg>
