<svg width="44" height="49" viewBox="0 0 44 49" fill="none" xmlns="http://www.w3.org/2000/svg">
<path d="M13.7818 47.7194C15.3096 47.9815 15.8825 47.0829 15.8825 46.2967C15.8825 45.5853 15.8443 43.2266 15.8443 40.7182C8.16737 42.1034 6.1813 38.8836 5.5702 37.1988C5.22645 36.3377 3.7369 33.6795 2.43831 32.9682C1.36889 32.4066 -0.158856 31.0213 2.40012 30.9838C4.80632 30.9464 6.52504 33.1554 7.09794 34.0539C9.84789 38.5841 14.2402 37.3112 15.9971 36.5249C16.2644 34.5781 17.0665 33.2677 17.9449 32.5189C11.1465 31.7701 4.04245 29.1867 4.04245 17.7302C4.04245 14.4729 5.22645 11.7773 7.17433 9.68067C6.86878 8.93187 5.79936 5.86182 7.47988 1.74346C7.47988 1.74346 10.0389 0.957222 15.8825 4.81351C18.3269 4.1396 20.9241 3.80264 23.5212 3.80264C26.1184 3.80264 28.7156 4.1396 31.16 4.81351C37.0036 0.919782 39.5626 1.74346 39.5626 1.74346C41.2431 5.86182 40.1737 8.93187 39.8681 9.68067C41.816 11.7773 43 14.4355 43 17.7302C43 29.2242 35.8578 31.7701 29.0593 32.5189C30.1669 33.4549 31.1218 35.252 31.1218 38.06C31.1218 42.066 31.0836 45.2858 31.0836 46.2967C31.0836 47.0829 31.6565 48.0189 33.1842 47.7194" stroke="#CBD5E1" stroke-width="2"/>
</svg>
