<svg width="47" height="47" viewBox="0 0 47 47" fill="none" xmlns="http://www.w3.org/2000/svg">
<path d="M23.5 11.2667C16.8846 11.2667 11.6129 16.6417 11.6129 23.1538C11.6129 29.7692 16.8846 35.0408 23.5 35.0408C30.012 35.0408 35.3871 29.7692 35.3871 23.1538C35.3871 16.6417 30.012 11.2667 23.5 11.2667ZM23.5 30.9062C19.262 30.9062 15.7476 27.4951 15.7476 23.1538C15.7476 18.9158 19.1586 15.5047 23.5 15.5047C27.738 15.5047 31.1491 18.9158 31.1491 23.1538C31.1491 27.4951 27.738 30.9062 23.5 30.9062ZM38.5914 10.8532C38.5914 9.30273 37.351 8.06234 35.8005 8.06234C34.25 8.06234 33.0097 9.30273 33.0097 10.8532C33.0097 12.4037 34.25 13.6441 35.8005 13.6441C37.351 13.6441 38.5914 12.4037 38.5914 10.8532ZM46.4472 13.6441C46.2405 9.92293 45.4136 6.61522 42.726 3.92771C40.0385 1.2402 36.7308 0.413271 33.0097 0.20654C29.1851 -0.000191927 17.7115 -0.000191927 13.887 0.20654C10.1658 0.413271 6.96146 1.2402 4.17059 3.92771C1.48307 6.61522 0.656148 9.92293 0.449416 13.6441C0.242684 17.4686 0.242684 28.9422 0.449416 32.7668C0.656148 36.488 1.48307 39.6923 4.17059 42.4832C6.96146 45.1707 10.1658 45.9976 13.887 46.2043C17.7115 46.4111 29.1851 46.4111 33.0097 46.2043C36.7308 45.9976 40.0385 45.1707 42.726 42.4832C45.4136 39.6923 46.2405 36.488 46.4472 32.7668C46.6539 28.9422 46.6539 17.4686 46.4472 13.6441ZM41.4857 36.798C40.7621 38.8654 39.1082 40.4159 37.1443 41.2428C34.0433 42.4832 26.8077 42.1731 23.5 42.1731C20.0889 42.1731 12.8533 42.4832 9.85571 41.2428C7.78839 40.4159 6.2379 38.8654 5.41098 36.798C4.17059 33.8004 4.48068 26.5648 4.48068 23.1538C4.48068 19.8461 4.17059 12.6104 5.41098 9.50947C6.2379 7.54551 7.78839 5.99503 9.85571 5.1681C12.8533 3.92771 20.0889 4.23781 23.5 4.23781C26.8077 4.23781 34.0433 3.92771 37.1443 5.1681C39.1082 5.89166 40.6587 7.54551 41.4857 9.50947C42.726 12.6104 42.4159 19.8461 42.4159 23.1538C42.4159 26.5648 42.726 33.8004 41.4857 36.798Z" fill="#CBD5E1"/>
</svg>
