<svg width="130" height="15" viewBox="0 0 130 15" fill="none" xmlns="http://www.w3.org/2000/svg">
<path d="M8.90555 2.82C8.75888 2.56667 8.21221 2.44 7.26555 2.44C6.02555 2.44 5.08555 2.86 4.44555 3.7C3.80555 4.54 3.48555 5.75333 3.48555 7.34C3.48555 10.6333 4.71888 12.28 7.18555 12.28C7.22555 12.28 7.39888 12.28 7.70555 12.28C8.02555 12.28 8.32555 12.24 8.60555 12.16C8.88555 12.0667 9.05221 11.9733 9.10555 11.88C9.15888 11.7867 9.18555 11.64 9.18555 11.44V9.84L11.2255 9.98V13.44C10.1855 13.9867 8.86555 14.26 7.26555 14.26C5.22555 14.26 3.66555 13.6867 2.58555 12.54C1.51888 11.3933 0.985547 9.68667 0.985547 7.42C0.985547 6.16667 1.16555 5.07333 1.52555 4.14C1.88555 3.20667 2.37221 2.48 2.98555 1.96C4.18555 0.959999 5.61221 0.459999 7.26555 0.459999C8.59888 0.459999 9.85221 0.733332 11.0255 1.28V4.68L8.98555 4.82V3.26C8.98555 3.06 8.95888 2.91333 8.90555 2.82ZM19.1168 0.459999C20.7035 0.459999 22.0301 1.02 23.0968 2.14C24.1635 3.26 24.6968 4.97333 24.6968 7.28C24.6968 9.57333 24.1635 11.3133 23.0968 12.5C22.0435 13.6733 20.6101 14.26 18.7968 14.26C16.9968 14.26 15.5835 13.6733 14.5568 12.5C13.5301 11.3267 13.0168 9.62 13.0168 7.38C13.0168 6.15333 13.1968 5.08 13.5568 4.16C13.9168 3.22667 14.3901 2.50667 14.9768 2C16.1635 0.973333 17.5435 0.459999 19.1168 0.459999ZM15.5168 7.28C15.5168 10.5867 16.6635 12.24 18.9568 12.24C20.1835 12.24 21.0435 11.7333 21.5368 10.72C21.9901 9.82667 22.2168 8.73333 22.2168 7.44C22.2168 6.28 22.0168 5.21333 21.6168 4.24C21.3901 3.70667 21.0435 3.28667 20.5768 2.98C20.1235 2.67333 19.5301 2.52 18.7968 2.52C18.0635 2.52 17.4301 2.76 16.8968 3.24C16.3768 3.72 16.0168 4.3 15.8168 4.98C15.6168 5.66 15.5168 6.42667 15.5168 7.28ZM28.6196 3.08L31.2996 11.14H31.3996L34.1996 2.48L32.9796 2.4V0.7H37.5796V2.32L36.9196 2.38C36.7463 2.39333 36.6196 2.44667 36.5396 2.54C36.4596 2.62 36.3796 2.76667 36.2996 2.98L32.5196 14H29.9196L25.8396 2.46L24.6996 2.4V0.7H29.8596V2.32L29.1996 2.38C28.7863 2.40667 28.5796 2.56667 28.5796 2.86C28.5796 2.92667 28.5929 3 28.6196 3.08ZM39.5655 11.66V2.46L38.4255 2.4V0.7H43.2655V2.32L42.6055 2.38C42.2189 2.42 42.0255 2.63333 42.0255 3.02V12.24L43.1655 12.3V14H38.3255V12.38L38.9855 12.32C39.1855 12.2933 39.3322 12.24 39.4255 12.16C39.5189 12.0667 39.5655 11.9 39.5655 11.66ZM44.4984 14V12.38L45.1584 12.32C45.545 12.28 45.7384 12.0933 45.7384 11.76V2.46L44.5984 2.4V0.7H50.0784C52.0384 0.7 53.565 1.22 54.6584 2.26C55.765 3.3 56.3184 4.84 56.3184 6.88C56.3184 8.14667 56.1517 9.25333 55.8184 10.2C55.485 11.1333 55.0317 11.8667 54.4584 12.4C53.3117 13.4667 51.885 14 50.1784 14H44.4984ZM48.1784 2.64V12.08H50.2184C51.365 12.08 52.2584 11.6667 52.8984 10.84C53.5384 10.0133 53.8584 8.81333 53.8584 7.24C53.8584 4.17333 52.5584 2.64 49.9584 2.64H48.1784ZM61.2191 11.58V3.72L58.8791 4.92L57.9991 3.38L61.6391 1.12H63.5991V12.2L65.6791 12.3V14H58.7191V12.36L60.6391 12.24C60.8391 12.2267 60.9858 12.1733 61.0791 12.08C61.1725 11.9867 61.2191 11.82 61.2191 11.58ZM68.9812 14.24L68.5012 12.38C70.0345 12.2067 71.2012 11.8 72.0012 11.16C72.8012 10.52 73.2745 9.64 73.4212 8.52C72.6478 9.02667 71.7212 9.28 70.6412 9.28C69.5612 9.28 68.7145 8.93333 68.1012 8.24C67.5012 7.54667 67.2012 6.56667 67.2012 5.3C67.2012 4.03333 67.5812 2.98 68.3412 2.14C69.1012 1.28667 70.2078 0.86 71.6612 0.86C73.1145 0.86 74.1812 1.38 74.8612 2.42C75.5412 3.46 75.8812 4.85333 75.8812 6.6C75.8812 11.28 73.5812 13.8267 68.9812 14.24ZM71.5212 2.72C70.9212 2.72 70.4412 2.94667 70.0812 3.4C69.7212 3.85333 69.5412 4.46 69.5412 5.22C69.5412 5.98 69.6945 6.56 70.0012 6.96C70.3078 7.34667 70.6878 7.54 71.1412 7.54C71.6078 7.54 72.0612 7.46667 72.5012 7.32C72.9545 7.16 73.3012 6.98667 73.5412 6.8C73.5412 6.68 73.5412 6.56 73.5412 6.44C73.5412 3.96 72.8678 2.72 71.5212 2.72Z" fill="#F8FAFC"/>
<path d="M78.7843 11.66V2.46L77.6443 2.4V0.7H82.4843V2.32L81.8243 2.38C81.4376 2.42 81.2443 2.63333 81.2443 3.02V12.24L82.3843 12.3V14H77.5443V12.38L78.2043 12.32C78.4043 12.2933 78.551 12.24 78.6443 12.16C78.7376 12.0667 78.7843 11.9 78.7843 11.66ZM83.6771 14V12.38L84.3971 12.32C84.7438 12.2933 84.9171 12.1067 84.9171 11.76V2.46L83.7771 2.4V0.7H87.3771L93.0371 9.88H93.0771V2.46L91.7571 2.4V0.7H96.6371V2.32L95.9171 2.38C95.5971 2.40667 95.4371 2.61333 95.4371 3V14H93.0971L87.3171 4.68H87.2771V12.24L88.5771 12.3V14H83.6771ZM97.8187 14V12.38L98.4787 12.32C98.8653 12.28 99.0587 12.0933 99.0587 11.76V2.46L97.9187 2.4V0.7H103.399C105.359 0.7 106.885 1.22 107.979 2.26C109.085 3.3 109.639 4.84 109.639 6.88C109.639 8.14667 109.472 9.25333 109.139 10.2C108.805 11.1333 108.352 11.8667 107.779 12.4C106.632 13.4667 105.205 14 103.499 14H97.8187ZM101.499 2.64V12.08H103.539C104.685 12.08 105.579 11.6667 106.219 10.84C106.859 10.0133 107.179 8.81333 107.179 7.24C107.179 4.17333 105.879 2.64 103.279 2.64H101.499ZM112.319 11.66V2.46L111.179 2.4V0.7H116.019V2.32L115.359 2.38C114.973 2.42 114.779 2.63333 114.779 3.02V12.24L115.919 12.3V14H111.079V12.38L111.739 12.32C111.939 12.2933 112.086 12.24 112.179 12.16C112.273 12.0667 112.319 11.9 112.319 11.66ZM117.932 11.76L121.152 2.44L119.892 2.32V0.7H124.472L128.552 12.24H128.572L129.712 12.3V14H124.552V12.38L125.312 12.32C125.539 12.2933 125.692 12.24 125.772 12.16C125.852 12.08 125.859 11.9333 125.792 11.72L125.372 10.48H120.692L120.092 12.24L121.292 12.3V14H116.672V12.38L117.332 12.32C117.612 12.2933 117.812 12.1067 117.932 11.76ZM123.032 2.94L121.172 8.64H124.892L123.092 2.94H123.032Z" fill="#3B82F6"/>
</svg>
