<svg width="36" height="34" viewBox="0 0 36 34" fill="none" xmlns="http://www.w3.org/2000/svg">
<path d="M26.849 15.7637C25.21 15.7652 23.6042 16.2265 22.2143 17.0952C20.8244 17.9639 19.7061 19.2051 18.9866 20.6778C18.9063 20.6528 18.8287 20.6283 18.7552 20.6045L18.1003 19.1301C19.6482 17.9568 20.0733 16.1377 20.1896 15.2553C21.2419 14.9707 22.2089 13.7338 22.5962 12.0951C22.8046 11.2095 22.4994 10.3852 21.8364 10.0435C21.6523 9.94802 21.4476 9.89861 21.2402 9.89955C21.2746 9.64186 21.3105 9.32651 21.3476 8.93886C21.4342 8.03495 21.4895 7.12199 21.4895 6.89043C21.4895 5.92261 21.1599 4.4539 20.2352 3.23419C18.6961 1.20475 16.2671 0.778809 14.5004 0.778809C12.7626 0.778809 10.3478 1.17618 8.71197 3.06913C7.42413 4.55944 7.14417 6.37928 7.27012 7.23911C7.27472 7.2702 7.30241 7.41671 7.34664 7.63543C7.34901 7.66421 7.35378 7.69273 7.36089 7.72071C7.36208 7.72516 7.36571 7.7386 7.37165 7.75834C7.48491 8.31016 7.67818 9.19818 7.8779 9.93295C7.69715 9.94869 7.52164 10.0018 7.36245 10.0888C6.7261 10.4327 6.43434 11.2392 6.63637 12.0954C7.02431 13.7372 7.99405 14.9751 9.04848 15.2571C9.17264 16.1147 9.60393 17.8928 11.0821 19.0676L10.3834 20.5735C9.8893 20.7279 9.34602 20.8793 8.77082 21.0383C5.24068 22.0143 0.410156 23.3509 0.410156 27.7973V31.0035C0.410156 32.09 1.80458 33.2539 2.79184 33.2539H26.4877C26.6076 33.2588 26.7279 33.2619 26.849 33.2619C28.0001 33.2653 29.1406 33.0414 30.205 32.6032C31.2694 32.1651 32.2369 31.5211 33.0521 30.7084C33.8672 29.8956 34.5139 28.93 34.9552 27.8668C35.3965 26.8037 35.6236 25.6639 35.6236 24.5128C35.6236 23.3617 35.3965 22.2219 34.9552 21.1588C34.5139 20.0956 33.8672 19.13 33.0521 18.3172C32.2369 17.5045 31.2694 16.8606 30.205 16.4224C29.1406 15.9842 28.0001 15.7604 26.849 15.7637ZM9.4978 3.74889C10.6048 2.4678 12.2878 1.81824 14.5001 1.81824C16.7274 1.81824 18.3784 2.50603 19.4072 3.86245C19.7743 4.35037 20.0513 4.89996 20.225 5.48532C19.7583 4.97919 19.2184 4.54573 18.6234 4.19933C18.5548 4.16078 18.4783 4.13846 18.3997 4.13408C18.3211 4.12969 18.2425 4.14336 18.17 4.17403C18.0976 4.2047 18.033 4.25156 17.9815 4.31102C17.9299 4.37048 17.8926 4.44096 17.8725 4.51706C17.8665 4.53784 17.2268 6.6199 13.1893 8.44575C11.6789 9.12857 10.4616 9.26327 9.57105 8.84542C9.28701 8.70745 9.0338 8.51345 8.82666 8.27511C8.61951 8.03677 8.46271 7.759 8.36566 7.4585L8.36507 7.45657C8.33293 7.29692 8.30941 7.16904 8.29761 7.08881C8.1131 5.82828 9.02651 4.29425 9.4978 3.74889ZM10.0401 14.777C10.0339 14.6431 9.97649 14.5168 9.87982 14.424C9.78315 14.3312 9.65457 14.2791 9.52058 14.2783H9.4998C8.87933 14.2783 7.99079 13.3108 7.64715 11.8566C7.54065 11.4052 7.68077 11.0977 7.85608 11.0031C8.05469 10.8958 8.26606 11.0842 8.3477 11.1703C8.43793 11.2655 8.56084 11.3231 8.69176 11.3315C8.82268 11.3398 8.95191 11.2983 9.0535 11.2153C9.1551 11.1323 9.22154 11.014 9.23948 10.884C9.25742 10.7541 9.22554 10.6222 9.15023 10.5147C9.08714 10.3979 8.98695 10.0675 8.87718 9.65337C8.9514 9.69664 9.02888 9.73798 9.11015 9.77679C9.61288 10.0109 10.162 10.1285 10.7165 10.1208C11.5744 10.1208 12.5444 9.8778 13.6175 9.39249C16.8188 7.9447 18.1061 6.30165 18.5968 5.42119C18.8335 5.59412 19.0574 5.7839 19.2668 5.98904C19.9951 6.70562 20.3657 7.45389 20.369 8.21323C20.292 9.15246 20.1731 10.2668 20.0672 10.5373C19.9978 10.648 19.9726 10.7807 19.9967 10.909C20.0207 11.0374 20.0922 11.152 20.197 11.23C20.3017 11.3081 20.432 11.3438 20.5619 11.33C20.6918 11.3163 20.8117 11.2542 20.8979 11.156C20.9944 11.0462 21.1824 10.8758 21.3605 10.9674C21.5527 11.0664 21.6914 11.4039 21.5848 11.8566C21.2391 13.3197 20.342 14.2891 19.7212 14.2784C19.5843 14.2758 19.4519 14.3274 19.3528 14.4219C19.2537 14.5164 19.1959 14.6462 19.1919 14.7831C19.1696 15.2106 18.9667 17.3991 17.1811 18.5029C16.4884 18.9307 15.6254 19.1476 14.616 19.1476C13.6101 19.1476 12.7493 18.926 12.0573 18.4887C10.3035 17.3815 10.0693 15.2025 10.0401 14.777ZM11.2301 21.2178L11.9685 19.6259C12.7325 19.998 13.6202 20.1866 14.6161 20.1866C15.5857 20.1866 16.4526 20.0122 17.2021 19.6676L17.8991 21.2367C17.9283 21.3024 17.9708 21.3614 18.024 21.4098C18.0772 21.4583 18.1398 21.4951 18.208 21.5181C18.3263 21.558 18.4509 21.5986 18.5848 21.6408C18.5016 21.8793 18.4287 22.1222 18.366 22.3696C17.8012 23.4002 16.4943 24.5793 14.6161 24.5793C12.1654 24.5793 10.9241 22.6552 10.6747 21.571C10.7574 21.5453 10.8393 21.5191 10.9196 21.4933C10.9875 21.4712 11.0501 21.4353 11.1036 21.3879C11.157 21.3405 11.2001 21.2826 11.2301 21.2178ZM2.79184 32.2148C2.29939 32.2148 1.44922 31.445 1.44922 31.0035V27.7973C1.44922 26.1728 2.21479 24.953 3.86741 23.9586C5.36322 23.0585 7.31859 22.5173 9.04566 22.0398C9.26089 21.9804 9.47019 21.922 9.67652 21.8641C10.0658 23.4445 11.7451 25.6183 14.6164 25.6183C15.8996 25.6209 17.1395 25.1545 18.1027 24.3067C18.1011 24.3752 18.1 24.4439 18.1 24.5129C18.1011 26.0923 18.5293 27.642 19.3394 28.9979C20.1495 30.3538 21.3112 31.4654 22.7015 32.2148H2.79184ZM26.849 32.2228H26.8366C26.8078 32.2178 26.7787 32.2151 26.7494 32.215H26.5055C24.4797 32.1225 22.5721 31.2348 21.1968 29.7446C19.8214 28.2543 19.0892 26.2818 19.1592 24.2552C19.2291 22.2285 20.0954 20.3111 21.5702 18.9192C23.045 17.5274 25.0092 16.7732 27.0366 16.8205C29.0639 16.8679 30.9908 17.7128 32.399 19.1719C33.8073 20.6311 34.5833 22.5868 34.5586 24.6145C34.5339 26.6423 33.7105 28.5785 32.2671 30.0029C30.8237 31.4273 28.8768 32.2251 26.849 32.223L26.849 32.2228Z" fill="#28A745"/>
</svg>
