<svg width="49" height="40" viewBox="0 0 49 40" fill="none" xmlns="http://www.w3.org/2000/svg">
<path d="M43.2684 9.23643L42.8321 9.55275L42.8564 10.0911C42.875 10.5042 42.8836 10.9206 42.8836 11.3406C42.8836 24.1474 33.1696 38.8362 15.4707 38.8362C11.4578 38.8362 7.65172 37.9667 4.21936 36.4105C8.48203 36.0755 12.3903 34.472 15.5665 31.9752L17.7723 30.2412L14.967 30.1892C11.6023 30.1268 8.68469 28.209 7.19649 25.4092C7.29611 25.412 7.39612 25.4134 7.49653 25.4134C8.49809 25.4134 9.46969 25.2781 10.3935 25.0256L14.0289 24.0316L10.379 23.0925C9.04382 22.749 7.20037 21.6338 5.68527 19.991C4.54117 18.7505 3.65614 17.2879 3.29507 15.7424C4.33675 16.1132 5.45154 16.3315 6.61134 16.3674L10.0947 16.4754L7.19855 14.5369C4.78484 12.9213 3.1984 10.1602 3.1984 7.03118C3.1984 5.89669 3.40815 4.81188 3.78959 3.81192C8.85575 9.41506 16.0432 13.0544 24.0843 13.4601L25.4107 13.5271L25.1085 12.2339C24.955 11.5773 24.8758 10.8893 24.8758 10.1778C24.8758 5.19866 28.9028 1.16382 33.8627 1.16382C36.4471 1.16382 38.7806 2.25799 40.422 4.01143L40.8014 4.41678L41.3461 4.30902C42.3449 4.11143 43.3182 3.84342 44.2608 3.51042C44.1434 3.62606 44.0261 3.74008 43.91 3.85205C43.7802 3.97723 43.6493 4.10239 43.5205 4.22538C43.1135 4.61438 42.729 4.98175 42.4769 5.26021C42.3893 5.35692 42.3001 5.46166 42.2234 5.56789C42.1592 5.65665 42.0469 5.8222 41.9847 6.03188C41.9199 6.25064 41.849 6.80356 42.3371 7.19361C42.679 7.46683 43.0676 7.44125 43.1697 7.43432L43.1954 7.43257L43.2209 7.42951C44.1347 7.31998 45.0305 7.15286 45.9048 6.93098C45.0978 7.77741 44.2146 8.55042 43.2684 9.23643ZM43.8359 6.75201C43.8357 6.75203 43.8375 6.74904 43.8419 6.74283C43.8382 6.74886 43.836 6.75198 43.8359 6.75201Z" stroke="#CBD5E1" stroke-width="2"/>
</svg>
